<?xml version="1.0" encoding="UTF-8"?>
<svg xmlns="http://www.w3.org/2000/svg" xmlns:xlink="http://www.w3.org/1999/xlink" version="1.1" viewBox="0 0 708.66 530.08">
  <!-- Generator: Adobe Illustrator 29.3.0, SVG Export Plug-In . SVG Version: 2.1.0 Build 146)  -->
  <defs>
    <style>
      .st0 {
        fill: none;
      }

      .st1 {
        fill: url(#_名称未設定グラデーション_83);
      }

      .st1, .st2 {
        display: none;
      }

      .st3 {
        fill: url(#_名称未設定グラデーション_241);
        mix-blend-mode: darken;
      }

      .st4 {
        stroke: #796a56;
      }

      .st4, .st5 {
        fill: #d8d8d8;
      }

      .st4, .st6 {
        stroke-miterlimit: 10;
      }

      .st7 {
        fill: #a12525;
      }

      .st8 {
        fill: #fad092;
      }

      .st9 {
        isolation: isolate;
      }

      .st6 {
        fill: #fff;
        stroke: #595757;
      }

      .st10 {
        fill: url(#_名称未設定グラデーション_243);
      }

      .st11 {
        fill: url(#_名称未設定グラデーション_274);
      }

      .st12 {
        fill: #992524;
      }

      .st13 {
        fill: #efb918;
      }

      .st14 {
        fill: #332813;
      }

      .st15 {
        fill: #f2d267;
      }

      .st16 {
        fill: #888;
      }

      .st17 {
        fill: #e9b518;
      }
    </style>
    <linearGradient id="_名称未設定グラデーション_83" data-name="名称未設定グラデーション 83" x1="436.67" y1="-28.78" x2="436.67" y2="541.99" gradientUnits="userSpaceOnUse">
      <stop offset="0" stop-color="#fad092"/>
      <stop offset="1" stop-color="#a12525"/>
    </linearGradient>
    <linearGradient id="_名称未設定グラデーション_243" data-name="名称未設定グラデーション 243" x1="422.57" y1="199.61" x2="484.7" y2="199.61" gradientUnits="userSpaceOnUse">
      <stop offset="0" stop-color="#fad092"/>
      <stop offset="0" stop-color="#f1c087"/>
      <stop offset=".01" stop-color="#de9b70"/>
      <stop offset=".02" stop-color="#ce7b5c"/>
      <stop offset=".03" stop-color="#bf604a"/>
      <stop offset=".04" stop-color="#b44a3c"/>
      <stop offset=".06" stop-color="#ab3932"/>
      <stop offset=".07" stop-color="#a52d2a"/>
      <stop offset=".1" stop-color="#a12626"/>
      <stop offset=".16" stop-color="#a12525"/>
    </linearGradient>
    <linearGradient id="_名称未設定グラデーション_241" data-name="名称未設定グラデーション 241" x1="312.89" y1="235.9" x2="312.89" y2="204.48" gradientTransform="translate(687.76 490.57) rotate(166.34) scale(1.03 1.14)" gradientUnits="userSpaceOnUse">
      <stop offset="0" stop-color="#fad092"/>
      <stop offset=".01" stop-color="#f0be86"/>
      <stop offset=".05" stop-color="#db956c"/>
      <stop offset=".09" stop-color="#c97256"/>
      <stop offset=".14" stop-color="#ba5644"/>
      <stop offset=".18" stop-color="#af4036"/>
      <stop offset=".23" stop-color="#a7302c"/>
      <stop offset=".29" stop-color="#a22726"/>
      <stop offset=".37" stop-color="#a12525"/>
    </linearGradient>
    <linearGradient id="_名称未設定グラデーション_274" data-name="名称未設定グラデーション 274" x1="581.1" y1="85.04" x2="581.1" y2="467.72" gradientUnits="userSpaceOnUse">
      <stop offset="0" stop-color="#fad092"/>
      <stop offset=".01" stop-color="#f1c087"/>
      <stop offset=".04" stop-color="#de9b70"/>
      <stop offset=".08" stop-color="#ce7b5c"/>
      <stop offset=".12" stop-color="#bf604a"/>
      <stop offset=".16" stop-color="#b44a3c"/>
      <stop offset=".22" stop-color="#ab3932"/>
      <stop offset=".28" stop-color="#a52d2a"/>
      <stop offset=".37" stop-color="#a12626"/>
      <stop offset=".62" stop-color="#a12525"/>
    </linearGradient>
  </defs>
  <g class="st9">
    <g id="_レイヤー_1" data-name="レイヤー_1" class="st2">
      <path class="st4" d="M506.35,316.67H0V0h27.89c.01,17.38-.02,34.8,0,52.18,0,8.81,0,17.64,0,26.45.06,70.52-.05,141.07,0,211.59h460.22c6.36,8.61,12.09,17.71,18.24,26.45Z"/>
      <rect class="st5" x="446.27" y="0" width="28.64" height="210.87"/>
      <polygon class="st5" points="251.03 52.18 251.03 0 278.92 0 278.92 184.43 251.03 184.43 251.03 0 278.92 0 278.92 52.18 278.92 184.43 251.03 184.43 251.03 184.43 251.03 78.63 251.03 52.18"/>
      <path class="st14" d="M180.94,52.18c1.82-.88,4.81-9.13,5.36-9.31.61-.19,1.36-.17,1.84.45.95,1.22,3.99,7.03,4.95,8.85.78,1.47,1.37,4.24,2.15,5.72-.04-.07-1.06.18-1.44-.49l-7.13-13.09-7.87,16.43c2.17-.44,15.88.6,16.45,0,.1-.1.07-2.73,0-2.86.39.74,2.72,1.85,2.15,3.57h-20.74l4.29-9.29Z"/>
      <path class="st14" d="M95.83,52.18c.85-1.33,4.89-8.43,5.37-8.58,1.31-.41.97.52,1.27.91,1.73,2.27,3.24,5.21,4.8,7.67s2.55,5.49,3.58,7.15c-.97-2.1-5.17-7.19-6.65-9.47-.86-1.33-1.54-2.73-2.28-4.11l-10.37,16.43h20.02c.21-.19-.47-2.34-.71-2.86.13.21,3.47,1.39,2.86,3.57h-24.32c1.9-3.7,4.21-7.23,6.44-10.72Z"/>
      <path class="st14" d="M57.21,52.18c1.79-.86,4.85-9.16,5.37-9.3,1.6-.42,1.31,3.04,3.19,3.39.38,2.4,2.75,4.4,3.59,5.91.78,1.38,1.39,4.28,2.15,5.72-.04-.07-1.06.18-1.44-.49-1.4-2.44-2.64-5.58-3.62-8.23l-3.51-4.85-7.87,16.43c2.18-.44,15.88.6,16.45,0,.1-.1.07-2.73,0-2.86.39.74,2.72,1.85,2.15,3.57h-20.74l4.29-9.29Z"/>
      <path class="st14" d="M140.89,52.18c1.91-.52,3.92-7.66,4.66-7.87,1.37-.38,4.54,7.29,6.07,7.87.86,2.13,1.83,5.21,2.86,7.15-.04-.07-1.06.18-1.44-.49-1.4-2.44-2.64-5.58-3.62-8.23l-3.51-4.85-7.87,16.43c2.18-.44,15.88.6,16.45,0,.1-.1.07-2.73,0-2.86.4.75,2.72,1.85,2.15,3.57h-20.74l5.01-10.72Z"/>
      <path class="st5" d="M641.52,52.18C641.54,34.8,641.5,17.38,641.52,0h27.89v316.67h-46.49c3.04-4.4,18.24-25.15,18.61-28.22.03-78.75-.1-157.52-.02-236.27Z"/>
      <path class="st17" d="M195.24,57.9c.07.12.1,2.75,0,2.86-.56.6-14.27-.44-16.45,0l7.87-16.43,7.13,13.09c.38.67,1.4.42,1.44.49Z"/>
      <path class="st17" d="M110.85,59.33c.24.52.92,2.66.71,2.86h-20.02s10.37-16.43,10.37-16.43c.74,1.38,1.42,2.77,2.28,4.11,1.48,2.28,5.69,7.37,6.65,9.47Z"/>
      <path class="st17" d="M71.52,57.9c.07.12.1,2.75,0,2.86-.56.6-14.27-.44-16.45,0l7.87-16.43,3.51,4.85c.98,2.66,2.23,5.8,3.62,8.23.38.67,1.4.42,1.44.49Z"/>
      <path class="st17" d="M154.48,59.33c.07.12.1,2.75,0,2.86-.56.6-14.27-.44-16.45,0l7.87-16.43,3.51,4.85c.98,2.66,2.23,5.8,3.62,8.23.38.67,1.4.42,1.44.49Z"/>
      <path class="st15" d="M446.27,52.18v158.69h28.64V52.18h166.6c-.08,78.75.05,157.51.02,236.27-.37,3.07-15.57,23.82-18.61,28.22-11.51,16.65-23.41,33.1-35.04,49.68v49.68h22.17l-45.41,17.06-45.42-17.06h22.89v-48.97c-11.98-16.75-23.92-33.56-35.76-50.4-6.15-8.74-11.88-17.84-18.24-26.45H27.89c-.05-70.52.06-141.07,0-211.59h223.14v105.79h27.89V52.18h167.35Z"/>
      <path class="st13" d="M57.21,52.18l-4.29,9.29h20.74c.58-1.72-1.75-2.83-2.15-3.57-.76-1.44-1.37-4.34-2.15-5.72h26.46c-2.23,3.49-4.54,7.03-6.44,10.72h24.32c.61-2.19-2.73-3.37-2.86-3.57-1.03-1.66-2.06-4.77-3.58-7.15h33.61l-5.01,10.72h20.74c.57-1.72-1.75-2.83-2.15-3.57-1.03-1.94-2-5.02-2.86-7.15h29.32l-4.29,9.29h20.74c.58-1.72-1.75-2.83-2.15-3.57-.78-1.47-1.37-4.25-2.15-5.72h33.61c-1.77,3.25-3.4,6.67-5.01,10.01h20.74c.58-1.72-1.75-2.83-2.15-3.57-.99-1.88-1.68-4.35-2.86-6.43h13.59v26.45H27.89c0-8.81,0-17.64,0-26.45h29.32Z"/>
    </g>
    <g id="_レイヤー_3" data-name="レイヤー_3">
      <rect class="st8" x="28.35" y="56.69" width="651.97" height="255.12"/>
    </g>
    <g id="_レイヤー_4" data-name="レイヤー_4">
      <rect class="st1" x="185.94" y="-28.78" width="501.46" height="570.77"/>
      <polygon class="st12" points="599.11 488.57 599.3 465.6 563.54 465.6 563.54 488.57 548.66 488.57 581.1 521.01 613.55 488.57 599.11 488.57"/>
      <rect class="st7" x="350.84" y="-42.46" width="29.91" height="229.83" transform="translate(293.34 438.25) rotate(-90)"/>
      <rect class="st10" x="422.57" y="87.41" width="62.13" height="224.4"/>
      <path class="st0" d="M453.54,56.69h-198.43v28.35h198.43v-28.35ZM482.22,311.81l-.33-85.04h-28.35V85.04h-28.35v226.77h57.02ZM425.2,283.46h-198.43v28.35h198.43v-28.35Z"/>
      <polygon class="st3" points="395.46 319.1 197.3 333.02 427.75 276.99 436.21 311.8 395.46 319.1"/>
    </g>
    <g id="_レイヤー_2" data-name="レイヤー_2">
      <rect class="st16" x="226.77" width="28.35" height="170.08"/>
      <rect class="st16" x="453.54" y="0" width="28.35" height="226.77"/>
      <path class="st16" d="M28.35,340.16H0V0h28.35v340.16ZM708.66,0h-28.35v340.16h28.35V0ZM680.31,340.16v-28.35H28.35v28.35h651.97Z"/>
      <circle class="st6" cx="694.49" cy="63.78" r="7.09"/>
      <circle class="st6" cx="694.49" cy="85.04" r="7.09"/>
      <circle class="st6" cx="694.49" cy="106.3" r="7.09"/>
    </g>
    <g id="_レイヤー_5" data-name="レイヤー_5">
      <polygon class="st11" points="680.31 311.81 599.3 467.72 563.54 467.72 482.22 311.81 481.89 85.04 680.31 85.04 680.31 311.81"/>
    </g>
  </g>
</svg>