<?xml version="1.0" encoding="UTF-8" standalone="no"?>
<!DOCTYPE svg PUBLIC "-//W3C//DTD SVG 1.1//EN" "http://www.w3.org/Graphics/SVG/1.1/DTD/svg11.dtd">
<svg width="100%" height="100%" viewBox="0 0 700 480" version="1.1" xmlns="http://www.w3.org/2000/svg" xmlns:xlink="http://www.w3.org/1999/xlink" xml:space="preserve" xmlns:serif="http://www.serif.com/" style="fill-rule:evenodd;clip-rule:evenodd;stroke-linecap:square;stroke-linejoin:round;stroke-miterlimit:1.5;">
    <g id="_レイヤー_1_" serif:id="_レイヤー_1" transform="matrix(1,0,0,1,-37.01,41.575)">
        <g transform="matrix(1,0,0,1.13719,0,-50.48193)">
            <rect x="51.35" y="112.85" width="331.65" height="255.12" style="fill:rgb(245,204,144);"/>
        </g>
        <g transform="matrix(1,0,0,1.13719,0,-50.48193)">
            <rect x="383.01" y="112.85" width="170.08" height="255.12" style="fill:rgb(225,173,104);"/>
        </g>
        <g transform="matrix(1,0,0,1.133271,0,-49.039589)">
            <rect x="553.09" y="112.85" width="170.08" height="255.12" style="fill:rgb(225,173,104);"/>
        </g>
    </g>
    <g transform="matrix(0.934605,0,0,2.192308,8.239782,-19.884615)">
        <g transform="matrix(1.069971,-0,-0,0.45614,-8.816327,9.070175)">
            <path d="M482.5,100L469,127L455.5,100L482.5,100Z" style="fill:rgb(198,113,0);"/>
            <path d="M126,120.423L126,92.998C126,80.297 136.297,70 148.998,70C210.455,70 378.225,70 443,70C457.359,70 469,81.641 469,96L469,105.4" style="fill:none;stroke:rgb(198,113,0);stroke-width:9px;"/>
        </g>
    </g>
    <g id="_レイヤー_2_" serif:id="_レイヤー_2" transform="matrix(1,0,0,1,-37.01,40.575)">
        <g transform="matrix(1,0,0,1,37.01,0.425)">
            <rect x="0" y="55" width="18" height="342" style="fill:rgb(111,111,111);"/>
        </g>
        <g transform="matrix(1,0,0,0.973684,377.01,3.872368)">
            <rect x="0" y="55" width="18" height="342" style="fill:rgb(111,111,111);"/>
        </g>
        <g transform="matrix(1,0,0,1,548.01,1.425)">
            <rect x="0" y="55" width="18" height="342" style="fill:rgb(111,111,111);"/>
        </g>
        <g transform="matrix(1,0,0,1,719.01,0.425)">
            <rect x="0" y="55" width="18" height="342" style="fill:rgb(111,111,111);"/>
        </g>
        <g transform="matrix(1.001431,0,0,1,37.01,0.425)">
            <rect x="0" y="368" width="699" height="30" style="fill:rgb(111,111,111);"/>
        </g>
    </g>
    <g id="_レイヤー_3_" serif:id="_レイヤー_3" transform="matrix(1,0,0,1,-37.01,41.575)">
        <g transform="matrix(1,0,0,1,52,4)">
            <rect x="249.37" y="337.01" width="48.59" height="11.34" style="fill:rgb(74,187,180);stroke:rgb(35,24,21);stroke-width:1px;stroke-linecap:butt;stroke-linejoin:miter;stroke-miterlimit:10;"/>
        </g>
        <g transform="matrix(0.997461,0,0,0.997941,1.118375,0.607827)">
            <path d="M493.8,337.08L442.3,337.08L440.48,348.45C440.48,353.89 452.82,358.3 468.05,358.3C483.28,358.3 495.62,353.89 495.62,348.45L493.8,337.08" style="fill:rgb(111,111,111);fill-rule:nonzero;stroke:rgb(35,24,21);stroke-width:0.75px;stroke-linecap:butt;stroke-linejoin:miter;stroke-miterlimit:10;"/>
            <ellipse cx="468.05" cy="336.67" rx="25.75" ry="6.74" style="fill:rgb(111,111,111);stroke:rgb(35,24,21);stroke-width:0.75px;stroke-linecap:butt;stroke-linejoin:miter;stroke-miterlimit:10;"/>
            <path d="M477.62,297.68C479.35,309.19 482.4,331.93 482.4,333.28C482.4,335.82 475.89,337.87 467.87,337.87C459.85,337.87 453.34,335.81 453.34,333.28C453.34,331.93 455.49,313.72 458.12,297.68" style="fill:rgb(111,111,111);fill-rule:nonzero;stroke:rgb(35,24,21);stroke-width:0.75px;stroke-linecap:butt;stroke-linejoin:miter;stroke-miterlimit:10;"/>
            <ellipse cx="467.87" cy="297.68" rx="9.75" ry="2.51" style="fill:rgb(111,111,111);stroke:rgb(35,24,21);stroke-width:0.75px;stroke-linecap:butt;stroke-linejoin:miter;stroke-miterlimit:10;"/>
        </g>
        <g>
            <path d="M663.88,337.08L612.38,337.08L610.56,348.45C610.56,353.89 622.9,358.3 638.13,358.3C653.36,358.3 665.7,353.89 665.7,348.45L663.88,337.08" style="fill:rgb(111,111,111);fill-rule:nonzero;stroke:rgb(35,24,21);stroke-width:0.75px;stroke-linecap:butt;stroke-linejoin:miter;stroke-miterlimit:10;"/>
            <ellipse cx="638.13" cy="336.67" rx="25.75" ry="6.74" style="fill:rgb(111,111,111);stroke:rgb(35,24,21);stroke-width:0.75px;stroke-linecap:butt;stroke-linejoin:miter;stroke-miterlimit:10;"/>
            <path d="M647.7,297.68C649.43,309.19 652.48,331.93 652.48,333.28C652.48,335.82 645.97,337.87 637.95,337.87C629.93,337.87 623.42,335.81 623.42,333.28C623.42,331.93 625.57,313.72 628.2,297.68" style="fill:rgb(111,111,111);fill-rule:nonzero;stroke:rgb(35,24,21);stroke-width:0.75px;stroke-linecap:butt;stroke-linejoin:miter;stroke-miterlimit:10;"/>
            <ellipse cx="637.95" cy="297.68" rx="9.75" ry="2.51" style="fill:rgb(111,111,111);stroke:rgb(35,24,21);stroke-width:0.75px;stroke-linecap:butt;stroke-linejoin:miter;stroke-miterlimit:10;"/>
        </g>
    </g>
    <g id="_レイヤー_4_" serif:id="_レイヤー_4">
    </g>
</svg>
