<?xml version="1.0" encoding="UTF-8"?>
<svg xmlns="http://www.w3.org/2000/svg" xmlns:xlink="http://www.w3.org/1999/xlink" version="1.1" viewBox="0 0 708.66 530.08">
  <!-- Generator: Adobe Illustrator 29.3.0, SVG Export Plug-In . SVG Version: 2.1.0 Build 146)  -->
  <defs>
    <style>
      .st0 {
        fill: none;
      }

      .st1 {
        fill: url(#_名称未設定グラデーション_83);
      }

      .st1, .st2 {
        display: none;
      }

      .st3 {
        fill: #a52524;
      }

      .st4 {
        stroke: #796a56;
      }

      .st4, .st5 {
        fill: #d8d8d8;
      }

      .st4, .st6 {
        stroke-miterlimit: 10;
      }

      .st7 {
        fill: #fad092;
      }

      .st6 {
        fill: #fff;
        stroke: #595757;
      }

      .st8 {
        fill: #efb918;
      }

      .st9 {
        fill: #332813;
      }

      .st10 {
        fill: #f2d267;
      }

      .st11 {
        fill: #888;
      }

      .st12 {
        fill: #e9b518;
      }

      .st13 {
        fill: url(#_名称未設定グラデーション_17);
      }

      .st14 {
        fill: url(#_名称未設定グラデーション_28);
      }

      .st15 {
        fill: url(#_名称未設定グラデーション_22);
      }
    </style>
    <linearGradient id="_名称未設定グラデーション_83" data-name="名称未設定グラデーション 83" x1="436.67" y1="-28.78" x2="436.67" y2="541.99" gradientUnits="userSpaceOnUse">
      <stop offset="0" stop-color="#fad092"/>
      <stop offset="1" stop-color="#a12525"/>
    </linearGradient>
    <linearGradient id="_名称未設定グラデーション_22" data-name="名称未設定グラデーション 22" x1="269.43" y1="270.47" x2="269.43" y2="311.81" gradientUnits="userSpaceOnUse">
      <stop offset="0" stop-color="#fad092"/>
      <stop offset=".12" stop-color="#efc189"/>
      <stop offset=".51" stop-color="#d0956f"/>
      <stop offset=".82" stop-color="#be7a5f"/>
      <stop offset="1" stop-color="#b7705a"/>
    </linearGradient>
    <linearGradient id="_名称未設定グラデーション_28" data-name="名称未設定グラデーション 28" x1="354.33" y1="56.69" x2="354.33" y2="82.51" gradientUnits="userSpaceOnUse">
      <stop offset="0" stop-color="#a52524"/>
      <stop offset=".4" stop-color="#a52625"/>
      <stop offset=".55" stop-color="#a92d29"/>
      <stop offset=".65" stop-color="#af3931"/>
      <stop offset=".74" stop-color="#b74a3c"/>
      <stop offset=".81" stop-color="#c2604a"/>
      <stop offset=".87" stop-color="#d07b5b"/>
      <stop offset=".93" stop-color="#e09b70"/>
      <stop offset=".98" stop-color="#f2c087"/>
      <stop offset="1" stop-color="#fad092"/>
    </linearGradient>
    <linearGradient id="_名称未設定グラデーション_17" data-name="名称未設定グラデーション 17" x1="475.07" y1="93.27" x2="687.14" y2="305.34" gradientUnits="userSpaceOnUse">
      <stop offset=".44" stop-color="#fad092"/>
      <stop offset=".46" stop-color="#ecb581"/>
      <stop offset=".52" stop-color="#c97256"/>
      <stop offset=".58" stop-color="#a32928"/>
      <stop offset="1" stop-color="#a12525"/>
    </linearGradient>
  </defs>
  <g id="_レイヤー_1" data-name="レイヤー_1" class="st2">
    <path class="st4" d="M506.35,316.67H0V0h27.89c.01,17.38-.02,34.8,0,52.18,0,8.81,0,17.64,0,26.45.06,70.52-.05,141.07,0,211.59h460.22c6.36,8.61,12.09,17.71,18.24,26.45Z"/>
    <rect class="st5" x="446.27" y="0" width="28.64" height="210.87"/>
    <polygon class="st5" points="251.03 52.18 251.03 0 278.92 0 278.92 184.43 251.03 184.43 251.03 0 278.92 0 278.92 52.18 278.92 184.43 251.03 184.43 251.03 184.43 251.03 78.63 251.03 52.18"/>
    <path class="st9" d="M180.94,52.18c1.82-.88,4.81-9.13,5.36-9.31.61-.19,1.36-.17,1.84.45.95,1.22,3.99,7.03,4.95,8.85.78,1.47,1.37,4.24,2.15,5.72-.04-.07-1.06.18-1.44-.49l-7.13-13.09-7.87,16.43c2.17-.44,15.88.6,16.45,0,.1-.1.07-2.73,0-2.86.39.74,2.72,1.85,2.15,3.57h-20.74l4.29-9.29Z"/>
    <path class="st9" d="M95.83,52.18c.85-1.33,4.89-8.43,5.37-8.58,1.31-.41.97.52,1.27.91,1.73,2.27,3.24,5.21,4.8,7.67s2.55,5.49,3.58,7.15c-.97-2.1-5.17-7.19-6.65-9.47-.86-1.33-1.54-2.73-2.28-4.11l-10.37,16.43h20.02c.21-.19-.47-2.34-.71-2.86.13.21,3.47,1.39,2.86,3.57h-24.32c1.9-3.7,4.21-7.23,6.44-10.72Z"/>
    <path class="st9" d="M57.21,52.18c1.79-.86,4.85-9.16,5.37-9.3,1.6-.42,1.31,3.04,3.19,3.39.38,2.4,2.75,4.4,3.59,5.91.78,1.38,1.39,4.28,2.15,5.72-.04-.07-1.06.18-1.44-.49-1.4-2.44-2.64-5.58-3.62-8.23l-3.51-4.85-7.87,16.43c2.18-.44,15.88.6,16.45,0,.1-.1.07-2.73,0-2.86.39.74,2.72,1.85,2.15,3.57h-20.74l4.29-9.29Z"/>
    <path class="st9" d="M140.89,52.18c1.91-.52,3.92-7.66,4.66-7.87,1.37-.38,4.54,7.29,6.07,7.87.86,2.13,1.83,5.21,2.86,7.15-.04-.07-1.06.18-1.44-.49-1.4-2.44-2.64-5.58-3.62-8.23l-3.51-4.85-7.87,16.43c2.18-.44,15.88.6,16.45,0,.1-.1.07-2.73,0-2.86.4.75,2.72,1.85,2.15,3.57h-20.74l5.01-10.72Z"/>
    <path class="st5" d="M641.52,52.18C641.54,34.8,641.5,17.38,641.52,0h27.89v316.67h-46.49c3.04-4.4,18.24-25.15,18.61-28.22.03-78.75-.1-157.52-.02-236.27Z"/>
    <path class="st12" d="M195.24,57.9c.07.12.1,2.75,0,2.86-.56.6-14.27-.44-16.45,0l7.87-16.43,7.13,13.09c.38.67,1.4.42,1.44.49Z"/>
    <path class="st12" d="M110.85,59.33c.24.52.92,2.66.71,2.86h-20.02s10.37-16.43,10.37-16.43c.74,1.38,1.42,2.77,2.28,4.11,1.48,2.28,5.69,7.37,6.65,9.47Z"/>
    <path class="st12" d="M71.52,57.9c.07.12.1,2.75,0,2.86-.56.6-14.27-.44-16.45,0l7.87-16.43,3.51,4.85c.98,2.66,2.23,5.8,3.62,8.23.38.67,1.4.42,1.44.49Z"/>
    <path class="st12" d="M154.48,59.33c.07.12.1,2.75,0,2.86-.56.6-14.27-.44-16.45,0l7.87-16.43,3.51,4.85c.98,2.66,2.23,5.8,3.62,8.23.38.67,1.4.42,1.44.49Z"/>
    <path class="st10" d="M446.27,52.18v158.69h28.64V52.18h166.6c-.08,78.75.05,157.51.02,236.27-.37,3.07-15.57,23.82-18.61,28.22-11.51,16.65-23.41,33.1-35.04,49.68v49.68h22.17l-45.41,17.06-45.42-17.06h22.89v-48.97c-11.98-16.75-23.92-33.56-35.76-50.4-6.15-8.74-11.88-17.84-18.24-26.45H27.89c-.05-70.52.06-141.07,0-211.59h223.14v105.79h27.89V52.18h167.35Z"/>
    <path class="st8" d="M57.21,52.18l-4.29,9.29h20.74c.58-1.72-1.75-2.83-2.15-3.57-.76-1.44-1.37-4.34-2.15-5.72h26.46c-2.23,3.49-4.54,7.03-6.44,10.72h24.32c.61-2.19-2.73-3.37-2.86-3.57-1.03-1.66-2.06-4.77-3.58-7.15h33.61l-5.01,10.72h20.74c.57-1.72-1.75-2.83-2.15-3.57-1.03-1.94-2-5.02-2.86-7.15h29.32l-4.29,9.29h20.74c.58-1.72-1.75-2.83-2.15-3.57-.78-1.47-1.37-4.25-2.15-5.72h33.61c-1.77,3.25-3.4,6.67-5.01,10.01h20.74c.58-1.72-1.75-2.83-2.15-3.57-.99-1.88-1.68-4.35-2.86-6.43h13.59v26.45H27.89c0-8.81,0-17.64,0-26.45h29.32Z"/>
  </g>
  <g id="_レイヤー_3" data-name="レイヤー_3">
    <rect class="st7" x="28.35" y="56.69" width="651.97" height="255.12"/>
  </g>
  <g id="_レイヤー_4" data-name="レイヤー_4">
    <rect class="st1" x="185.94" y="-28.78" width="501.46" height="570.77"/>
    <polygon class="st3" points="599.11 488.57 599.04 431.5 563.27 431.5 563.54 488.57 548.66 488.57 581.1 521.01 613.55 488.57 599.11 488.57"/>
    <path class="st0" d="M453.54,56.69h-198.43v28.35h198.43v-28.35ZM482.22,311.81l-.33-85.04h-28.35V85.04h-28.35v226.77h57.02ZM425.2,283.46h-198.43v28.35h198.43v-28.35Z"/>
    <polygon class="st3" points="647.6 440.97 590.54 441.05 590.54 476.81 647.6 476.55 647.6 491.43 680.05 458.98 647.6 426.54 647.6 440.97"/>
  </g>
  <g id="_レイヤー_2" data-name="レイヤー_2">
    <rect class="st11" x="226.77" width="28.35" height="170.08"/>
    <rect class="st11" x="453.54" y="0" width="28.35" height="226.77"/>
    <path class="st11" d="M28.35,340.16H0V0h28.35v340.16ZM708.66,0h-28.35v340.16h28.35V0ZM680.31,340.16v-28.35H28.35v28.35h651.97Z"/>
    <circle class="st6" cx="694.49" cy="63.78" r="7.09"/>
    <circle class="st6" cx="694.49" cy="85.04" r="7.09"/>
    <circle class="st6" cx="694.49" cy="106.3" r="7.09"/>
    <rect class="st15" x="28.35" y="270.47" width="482.16" height="41.34"/>
    <rect class="st14" x="255.12" y="56.69" width="198.43" height="25.82"/>
  </g>
  <g id="_レイヤー_5" data-name="レイヤー_5">
    <rect class="st13" x="482.15" y="86.19" width="197.89" height="226.24"/>
    <polyline class="st3" points="481.95 312.43 680.05 312.43 599.04 431.5 563.27 431.5 481.95 312.43"/>
  </g>
</svg>