<?xml version="1.0" encoding="UTF-8" standalone="no"?>
<!DOCTYPE svg PUBLIC "-//W3C//DTD SVG 1.1//EN" "http://www.w3.org/Graphics/SVG/1.1/DTD/svg11.dtd">
<svg width="100%" height="100%" viewBox="0 0 512 512" version="1.1" xmlns="http://www.w3.org/2000/svg" xmlns:xlink="http://www.w3.org/1999/xlink" xml:space="preserve" xmlns:serif="http://www.serif.com/" style="fill-rule:evenodd;clip-rule:evenodd;stroke-linejoin:round;stroke-miterlimit:2;">
    <path d="M497.569,215.166L442.224,202.102C438.192,188.156 432.729,174.832 425.848,162.37L455.698,114.067C460.268,106.67 459.15,97.121 453.01,90.981L421.02,58.991C414.891,52.862 405.342,51.743 397.944,56.313L349.652,86.164C337.19,79.282 323.867,73.82 309.92,69.787L296.856,14.419C294.856,5.978 287.306,0 278.63,0L233.393,0C224.715,0 217.166,5.978 215.166,14.419L202.102,69.787C188.156,73.819 174.832,79.271 162.37,86.164L114.067,56.292C106.68,51.743 97.121,52.851 90.981,58.991L58.99,90.97C52.86,97.11 51.742,106.679 56.301,114.057L86.163,162.37C79.281,174.832 73.819,188.156 69.796,202.091L14.418,215.156C5.978,217.165 0,224.704 0,233.392L0,278.618C0,287.296 5.978,294.855 14.419,296.844L69.797,309.909C73.829,323.855 79.282,337.168 86.164,349.619L56.292,397.943C51.743,405.341 52.851,414.9 58.991,421.041L90.97,453.02C97.11,459.16 106.679,460.277 114.057,455.708L162.38,425.836C174.843,432.718 188.166,438.18 202.102,442.202L215.166,497.568C217.166,506.031 224.715,511.999 233.393,511.999L278.63,511.999C287.307,511.999 294.856,506.031 296.856,497.568L309.92,442.202C323.857,438.181 337.179,432.718 349.632,425.836L397.944,455.697C405.342,460.267 414.891,459.149 421.031,453.009L453.02,421.019C459.15,414.89 460.268,405.331 455.698,397.932L425.837,349.63C432.73,337.178 438.182,323.856 442.214,309.909L497.58,296.844C506.043,294.843 512,287.305 512,278.618L512,233.38C512,224.714 506.032,217.165 497.569,215.166ZM256.006,303.103C230.004,303.103 208.908,282.006 208.908,255.995C208.908,229.984 230.005,208.887 256.006,208.887C282.017,208.887 303.114,229.984 303.114,255.995C303.114,282.006 282.017,303.103 256.006,303.103Z" style="fill:rgb(0,194,120);fill-rule:nonzero;"/>
</svg>
